<svg width="120" height="140" viewBox="0 0 120 140" fill="none" xmlns="http://www.w3.org/2000/svg">
  <!-- Person icon -->
  <circle cx="35" cy="20" r="8" stroke="#333" stroke-width="2"/>
  <path d="M25 32C25 28 28 25 35 25C42 25 45 28 45 32L45 40H25V32Z" stroke="#333" stroke-width="2" fill="none"/>
  
  <!-- Upward arrow -->
  <path d="M55 15L70 5" stroke="#FF6B35" stroke-width="2.5" stroke-linecap="round" stroke-linejoin="round"/>
  <path d="M70 5L75 0M70 5L65 10" stroke="#FF6B35" stroke-width="2.5" stroke-linecap="round" stroke-linejoin="round"/>
  
  <!-- Bar chart -->
  <rect x="75" y="30" width="8" height="20" stroke="#4A90E2" stroke-width="2" fill="none"/>
  <rect x="87" y="20" width="8" height="30" stroke="#4A90E2" stroke-width="2" fill="none"/>
  <rect x="99" y="10" width="8" height="40" stroke="#4A90E2" stroke-width="2" fill="none"/>
  
  <!-- Gear icon -->
  <circle cx="50" cy="70" r="12" stroke="#333" stroke-width="2" fill="none"/>
  <circle cx="50" cy="70" r="5" stroke="#333" stroke-width="2" fill="none"/>
  <rect x="48" y="55" width="4" height="6" fill="#333"/>
  <rect x="48" y="79" width="4" height="6" fill="#333"/>
  <rect x="60" y="68" width="6" height="4" fill="#333"/>
  <rect x="34" y="68" width="6" height="4" fill="#333"/>
  <rect x="57" y="62" width="4" height="4" fill="#333" transform="rotate(45 59 64)"/>
  <rect x="43" y="76" width="4" height="4" fill="#333" transform="rotate(45 45 78)"/>
  
  <!-- PERSONAL text -->
  <text x="60" y="130" font-family="Arial, sans-serif" font-size="14" font-weight="bold" text-anchor="middle" fill="#333">PERSONAL</text>
</svg>